<svg width="65" height="65" viewBox="0 0 65 65" fill="none" xmlns="http://www.w3.org/2000/svg">
<path d="M38.1567 30.26C38.3955 30.5014 38.5294 30.8272 38.5294 31.1667C38.5294 31.5062 38.3955 31.832 38.1567 32.0733L32.49 37.74C32.2487 37.9788 31.9229 38.1127 31.5834 38.1127C31.2439 38.1127 30.9181 37.9788 30.6767 37.74L27.8434 34.9067C27.6426 34.6591 27.5406 34.3459 27.5571 34.0276C27.5737 33.7093 27.7076 33.4083 27.933 33.1829C28.1584 32.9575 28.4593 32.8236 28.7776 32.8071C29.096 32.7905 29.4092 32.8925 29.6567 33.0933L31.5834 35.0342L36.3434 30.26C36.5847 30.0212 36.9105 29.8873 37.25 29.8873C37.5896 29.8873 37.9154 30.0212 38.1567 30.26V30.26ZM47.1667 34C47.1667 36.8019 46.3359 39.5409 44.7792 41.8706C43.2225 44.2003 41.01 46.0161 38.4214 47.0883C35.8328 48.1605 32.9843 48.4411 30.2363 47.8945C27.4882 47.3478 24.9639 45.9986 22.9827 44.0174C21.0015 42.0361 19.6522 39.5119 19.1056 36.7638C18.559 34.0157 18.8395 31.1673 19.9118 28.5787C20.984 25.99 22.7998 23.7775 25.1295 22.2209C27.4592 20.6642 30.1981 19.8333 33 19.8333C34.8604 19.8333 36.7026 20.1998 38.4214 20.9117C40.1402 21.6237 41.7019 22.6672 43.0174 23.9827C44.3329 25.2982 45.3764 26.8599 46.0883 28.5787C46.8003 30.2974 47.1667 32.1396 47.1667 34V34ZM44.3334 34C44.3334 31.7585 43.6687 29.5673 42.4234 27.7035C41.178 25.8398 39.408 24.3872 37.3371 23.5294C35.2662 22.6716 32.9875 22.4471 30.789 22.8844C28.5906 23.3217 26.5712 24.4011 24.9862 25.9861C23.4012 27.5711 22.3218 29.5905 21.8845 31.789C21.4472 33.9874 21.6716 36.2662 22.5294 38.3371C23.3872 40.408 24.8398 42.178 26.7036 43.4233C28.5673 44.6687 30.7585 45.3333 33 45.3333C36.0058 45.3333 38.8885 44.1393 41.0139 42.0139C43.1393 39.8885 44.3334 37.0058 44.3334 34Z" fill="#11B47D"/>
<circle cx="32.5" cy="32.5" r="32.5" fill="#11B47D" fill-opacity="0.1"/>
<circle cx="32.5" cy="33.5" r="21.5" fill="#11B47D" fill-opacity="0.15"/>
</svg>
