<svg width="24" height="25" viewBox="0 0 24 25" fill="none" xmlns="http://www.w3.org/2000/svg">
<path fill-rule="evenodd" clip-rule="evenodd" d="M19.23 15.5126L16.69 15.2258C16.08 15.1566 15.48 15.3642 15.05 15.7895L13.21 17.609C10.38 16.185 8.06004 13.9007 6.62004 11.0922L8.47004 9.26279C8.90004 8.83757 9.11004 8.24424 9.04004 7.64101L8.75004 5.14901C8.63004 4.15024 7.78004 3.39868 6.76004 3.39868H5.03004C3.90004 3.39868 2.96004 4.32824 3.03004 5.44568C3.56004 13.8908 10.39 20.635 18.92 21.1591C20.05 21.2283 20.99 20.2988 20.99 19.1813V17.4706C21 16.4718 20.24 15.6312 19.23 15.5126Z" fill="white"/>
</svg>
