<svg width="18" height="19" viewBox="0 0 18 19" fill="none" xmlns="http://www.w3.org/2000/svg">
<path fill-rule="evenodd" clip-rule="evenodd" d="M16.2037 12.5126L13.6637 12.2258C13.0537 12.1566 12.4537 12.3642 12.0237 12.7895L10.1837 14.609C7.35367 13.185 5.03367 10.9007 3.59367 8.09224L5.44367 6.26279C5.87367 5.83757 6.08367 5.24424 6.01367 4.64101L5.72367 2.14901C5.60367 1.15024 4.75367 0.398682 3.73367 0.398682H2.00367C0.873674 0.398682 -0.0663265 1.32824 0.00367348 2.44568C0.533673 10.8908 7.36367 17.635 15.8937 18.1591C17.0237 18.2283 17.9637 17.2988 17.9637 16.1813V14.4706C17.9737 13.4718 17.2137 12.6312 16.2037 12.5126Z" fill="#1C2D3D"/>
</svg>
