<svg width="24" height="24" viewBox="0 0 24 24" fill="none" xmlns="http://www.w3.org/2000/svg">
<path fill-rule="evenodd" clip-rule="evenodd" d="M5 8.90001C5 5.07301 8.13 1.97778 12 1.97778C15.87 1.97778 19 5.07301 19 8.90001C19 13.0237 14.58 18.7098 12.77 20.8755C12.37 21.3501 11.64 21.3501 11.24 20.8755C9.42 18.7098 5 13.0237 5 8.90001ZM9.5 8.90023C9.5 10.2649 10.62 11.3725 12 11.3725C13.38 11.3725 14.5 10.2649 14.5 8.90023C14.5 7.53556 13.38 6.42801 12 6.42801C10.62 6.42801 9.5 7.53556 9.5 8.90023Z" fill="white"/>
</svg>
