<svg width="41" height="41" viewBox="0 0 41 41" fill="none" xmlns="http://www.w3.org/2000/svg">
<path d="M36.9 35.1046C37.0432 35.295 37.1306 35.5215 37.1522 35.7587C37.1738 35.996 37.1288 36.2345 37.0224 36.4476C36.9159 36.6607 36.7521 36.8399 36.5495 36.9651C36.3468 37.0903 36.1132 37.1565 35.875 37.1562H5.125C4.88706 37.1562 4.65381 37.09 4.45141 36.9649C4.249 36.8398 4.08543 36.6608 3.97902 36.448C3.8726 36.2352 3.82756 35.9969 3.84893 35.7599C3.8703 35.523 3.95723 35.2966 4.1 35.1062C5.23452 33.5852 6.74742 32.3876 8.48828 31.6325C7.53404 30.7615 6.86541 29.6224 6.57017 28.3647C6.27493 27.1069 6.36687 25.7893 6.83392 24.5848C7.30097 23.3802 8.12131 22.345 9.18726 21.615C10.2532 20.8851 11.515 20.4944 12.8069 20.4944C14.0988 20.4944 15.3606 20.8851 16.4265 21.615C17.4925 22.345 18.3128 23.3802 18.7799 24.5848C19.2469 25.7893 19.3389 27.1069 19.0436 28.3647C18.7484 29.6224 18.0798 30.7615 17.1255 31.6325C18.3815 32.1753 19.5228 32.952 20.4888 33.9211C21.4547 32.952 22.5961 32.1753 23.8521 31.6325C22.8978 30.7615 22.2292 29.6224 21.934 28.3647C21.6387 27.1069 21.7307 25.7893 22.1977 24.5848C22.6648 23.3802 23.4851 22.345 24.551 21.615C25.617 20.8851 26.8787 20.4944 28.1707 20.4944C29.4626 20.4944 30.7244 20.8851 31.7903 21.615C32.8563 22.345 33.6766 23.3802 34.1437 24.5848C34.6107 25.7893 34.7027 27.1069 34.4074 28.3647C34.1122 29.6224 33.4435 30.7615 32.4893 31.6325C34.2383 32.3836 35.7592 33.5809 36.9 35.1046ZM4.35625 20.2438C4.49086 20.3447 4.64403 20.4182 4.80702 20.4599C4.97001 20.5017 5.13963 20.5109 5.3062 20.4871C5.47276 20.4633 5.63301 20.407 5.77779 20.3212C5.92257 20.2355 6.04905 20.1221 6.15 19.9875C6.92574 18.9532 7.93164 18.1137 9.08805 17.5355C10.2445 16.9573 11.5196 16.6563 12.8125 16.6563C14.1054 16.6563 15.3805 16.9573 16.537 17.5355C17.6934 18.1137 18.6993 18.9532 19.475 19.9875C19.5943 20.1466 19.7491 20.2758 19.927 20.3647C20.1049 20.4537 20.3011 20.5 20.5 20.5C20.6989 20.5 20.8951 20.4537 21.073 20.3647C21.2509 20.2758 21.4057 20.1466 21.525 19.9875C22.3007 18.9532 23.3066 18.1137 24.463 17.5355C25.6195 16.9573 26.8946 16.6563 28.1875 16.6563C29.4804 16.6563 30.7555 16.9573 31.912 17.5355C33.0684 18.1137 34.0743 18.9532 34.85 19.9875C34.9511 20.1221 35.0776 20.2355 35.2225 20.3212C35.3674 20.4069 35.5277 20.4632 35.6944 20.4869C35.861 20.5106 36.0307 20.5013 36.1937 20.4594C36.3568 20.4176 36.5099 20.344 36.6445 20.2429C36.7792 20.1419 36.8925 20.0153 36.9782 19.8704C37.0639 19.7256 37.1202 19.5652 37.1439 19.3986C37.1677 19.2319 37.1583 19.0623 37.1165 18.8992C37.0746 18.7362 37.0011 18.583 36.9 18.4484C35.7654 16.9278 34.2525 15.7307 32.5117 14.9762C33.466 14.1053 34.1346 12.9662 34.4298 11.7084C34.7251 10.4507 34.6331 9.13306 34.1661 7.92851C33.699 6.72395 32.8787 5.68875 31.8127 4.95878C30.7468 4.22881 29.485 3.8382 28.1931 3.8382C26.9012 3.8382 25.6394 4.22881 24.5735 4.95878C23.5075 5.68875 22.6872 6.72395 22.2201 7.92851C21.7531 9.13306 21.6611 10.4507 21.9564 11.7084C22.2516 12.9662 22.9202 14.1053 23.8745 14.9762C22.6185 15.5191 21.4772 16.2958 20.5112 17.2648C19.5453 16.2958 18.4039 15.5191 17.1479 14.9762C18.1022 14.1053 18.7708 12.9662 19.066 11.7084C19.3613 10.4507 19.2693 9.13306 18.8023 7.92851C18.3352 6.72395 17.5149 5.68875 16.449 4.95878C15.383 4.22881 14.1213 3.8382 12.8293 3.8382C11.5374 3.8382 10.2756 4.22881 9.20968 4.95878C8.14373 5.68875 7.32339 6.72395 6.85634 7.92851C6.38929 9.13306 6.29735 10.4507 6.59259 11.7084C6.88783 12.9662 7.55646 14.1053 8.5107 14.9762C6.76167 15.728 5.24072 16.9259 4.1 18.45C3.99905 18.5846 3.92559 18.7378 3.88384 18.9008C3.84208 19.0638 3.83283 19.2334 3.85663 19.3999C3.88042 19.5665 3.93679 19.7268 4.02252 19.8715C4.10824 20.0163 4.22165 20.1428 4.35625 20.2438Z" fill="white"/>
</svg>
