<svg width="44" height="44" viewBox="0 0 44 44" fill="none" xmlns="http://www.w3.org/2000/svg">
<path d="M38.5 8.24998V28.875C38.4989 29.0707 38.456 29.264 38.3742 29.4418C38.2924 29.6197 38.1735 29.778 38.0256 29.9062C35.3994 32.1801 32.8883 33 30.4941 33C27.2439 33 24.2086 31.4978 21.3847 30.1039C16.8214 27.8437 12.8545 25.8861 8.25 29.5229V37.125C8.25 37.4896 8.10513 37.8394 7.84727 38.0972C7.58941 38.3551 7.23967 38.5 6.875 38.5C6.51033 38.5 6.16059 38.3551 5.90273 38.0972C5.64487 37.8394 5.5 37.4896 5.5 37.125V8.24998C5.50132 8.05409 5.54448 7.86074 5.62659 7.68289C5.70869 7.50504 5.82786 7.34678 5.97609 7.21873C12.1636 1.85966 17.7169 4.60451 22.6119 7.02623C27.3281 9.36029 31.417 11.3781 36.2244 7.21873C36.4231 7.04648 36.667 6.93483 36.9272 6.897C37.1874 6.85917 37.4531 6.89675 37.6926 7.0053C37.9321 7.11384 38.1355 7.28878 38.2786 7.50939C38.4217 7.73 38.4985 7.98702 38.5 8.24998Z" fill="white"/>
</svg>
