<svg width="43" height="43" viewBox="0 0 43 43" fill="none" xmlns="http://www.w3.org/2000/svg">
<path d="M32.25 12.0937H25.5648C25.0761 12.0652 16.5584 11.4655 8.44715 4.66278C8.05546 4.33382 7.57802 4.12347 7.07093 4.05644C6.56383 3.98941 6.04814 4.06849 5.58443 4.28438C5.12071 4.50027 4.72824 4.84402 4.45312 5.27523C4.17799 5.70644 4.03164 6.20721 4.03125 6.71872V33.5937C4.03132 34.1054 4.17744 34.6064 4.45244 35.0378C4.72744 35.4693 5.11989 35.8133 5.58367 36.0294C6.04744 36.2455 6.56326 36.3247 7.07051 36.2577C7.57776 36.1908 8.05535 35.9804 8.44715 35.6513C14.7913 30.3301 21.3807 28.8049 24.1875 28.3783V33.7063C24.1869 34.1491 24.2958 34.5852 24.5045 34.9759C24.7131 35.3665 25.015 35.6995 25.3834 35.9453L27.2311 37.1765C27.5882 37.4149 27.9973 37.5642 28.424 37.612C28.8507 37.6598 29.2826 37.6046 29.6836 37.4511C30.0846 37.2977 30.443 37.0504 30.7288 36.7299C31.0146 36.4095 31.2194 36.0252 31.3262 35.6093L33.3032 28.1583C35.3469 27.9072 37.2171 26.8836 38.5303 25.2976C39.8434 23.7115 40.5 21.6832 40.3653 19.6285C40.2306 17.5738 39.3148 15.6485 37.8058 14.2475C36.2969 12.8464 34.309 12.0758 32.25 12.0937ZM28.7227 34.919V34.9375L26.875 33.7063V28.2187H30.5031L28.7227 34.919ZM32.25 25.5312H26.875V14.7812H32.25C33.6755 14.7812 35.0427 15.3475 36.0507 16.3555C37.0587 17.3635 37.625 18.7307 37.625 20.1562C37.625 21.5818 37.0587 22.9489 36.0507 23.9569C35.0427 24.9649 33.6755 25.5312 32.25 25.5312Z" fill="white"/>
</svg>
